<?xml version="1.0" standalone="no"?>
<!DOCTYPE svg PUBLIC "-//W3C//DTD SVG 20010904//EN"
 "http://www.w3.org/TR/2001/REC-SVG-20010904/DTD/svg10.dtd">
<svg version="1.0" xmlns="http://www.w3.org/2000/svg"
 width="225.000000pt" height="225.000000pt" viewBox="0 0 225.000000 225.000000"
 preserveAspectRatio="xMidYMid meet">
<metadata>
Created by potrace 1.15, written by Peter Selinger 2001-2017
</metadata>
<g transform="translate(0.000000,225.000000) scale(0.100000,-0.100000)"
fill="#dddddd" stroke="none">
<path d="M1238 2136 c-46 -31 -373 -358 -404 -404 -29 -42 -30 -86 -4 -130 31
-50 76 -74 130 -67 l45 5 93 -93 94 -94 -246 -228 c-181 -169 -252 -229 -271
-230 -28 -1 -45 -19 -45 -47 0 -9 -114 -123 -254 -252 -261 -243 -286 -273
-286 -345 0 -15 10 -47 23 -71 25 -48 90 -90 138 -90 72 0 102 25 345 286 129
140 243 254 252 254 28 0 46 17 47 44 1 19 63 92 230 272 l228 246 94 -94 93
-93 -5 -45 c-7 -54 17 -99 67 -130 44 -26 88 -25 130 4 46 31 373 358 404 404
29 42 30 86 4 130 -31 50 -76 74 -131 68 l-45 -5 -267 267 -267 267 5 45 c7
54 -16 99 -67 130 -44 26 -88 25 -130 -4z m100 -78 c29 -29 10 -55 -180 -245
-191 -191 -217 -210 -246 -181 -29 29 -10 55 180 245 191 191 217 210 246 181z
m-20 -405 l-148 -148 -50 50 -50 50 147 147 148 148 50 -50 50 -50 -147 -147z
m317 -23 l100 -100 -148 -148 -147 -147 -102 103 -103 102 145 145 c80 80 147
145 150 145 3 0 50 -45 105 -100z m218 -218 l47 -47 -148 -148 -147 -147 -50
50 -49 50 144 145 c80 80 147 145 150 145 3 0 27 -21 53 -48z m205 -74 c29
-29 10 -55 -180 -245 -191 -191 -217 -210 -246 -181 -29 29 -10 55 180 245
191 191 217 210 246 181z m-788 -73 c15 -18 11 -22 -250 -303 l-185 -200 -37
35 -36 35 66 62 c273 256 416 386 422 386 4 0 13 -7 20 -15z m-523 -594 c-141
-154 -435 -469 -447 -478 -43 -35 -120 7 -120 65 0 33 26 59 334 346 l180 166
38 -37 38 -37 -23 -25z"/>
</g>
</svg>
